<svg width="8" height="6" viewBox="0 0 8 6" fill="none" xmlns="http://www.w3.org/2000/svg">
<path d="M7.23593 1.36607C7.31927 1.4494 7.36093 1.55059 7.36093 1.66964C7.36093 1.78869 7.31927 1.88988 7.23593 1.97321L4.00379 5.20536L3.39665 5.8125C3.31332 5.89583 3.21212 5.9375 3.09308 5.9375C2.97403 5.9375 2.87284 5.89583 2.78951 5.8125L2.18236 5.20536L0.566291 3.58929C0.482958 3.50595 0.441291 3.40476 0.441291 3.28571C0.441291 3.16667 0.482958 3.06548 0.566291 2.98214L1.17343 2.375C1.25677 2.29167 1.35796 2.25 1.47701 2.25C1.59605 2.25 1.69724 2.29167 1.78058 2.375L3.09308 3.69196L6.02165 0.758928C6.10498 0.675595 6.20617 0.633928 6.32522 0.633928C6.44427 0.633928 6.54546 0.675595 6.62879 0.758928L7.23593 1.36607Z" fill="black"/>
</svg>
