<svg width="25" height="22" viewBox="0 0 25 22" fill="none" xmlns="http://www.w3.org/2000/svg">
<path d="M12.5 3.64229e-05C10.756 3.64229e-05 9.34764 0.65698 8.39214 1.75698C7.43664 2.85698 6.93044 4.37893 6.85484 6.09877C6.85484 6.1075 6.85484 6.1155 6.85484 6.12423C6.93548 9.65339 8.32085 11.3798 9.48805 12.5918C9.05962 12.9672 8.42958 13.3113 7.61089 13.6358C6.62946 14.025 5.46947 14.4113 4.34692 14.9599C3.22509 15.5084 2.13422 16.2156 1.32272 17.277C0.511233 18.3377 0 19.7454 0 21.5926C0 21.8174 0.180732 22 0.403226 22H24.5968C24.8193 22 25 21.8174 25 21.5926C25 19.7454 24.488 18.3377 23.6766 17.2763C22.8651 16.2148 21.7742 15.5077 20.6524 14.9591C19.5298 14.4106 18.3698 14.0243 17.3884 13.6351C16.569 13.3106 15.9397 12.9658 15.5112 12.5911C16.6784 11.3791 18.0638 9.65267 18.1444 6.12351C18.1444 6.11478 18.1444 6.10677 18.1444 6.09804C18.0364 3.63396 17.019 1.554 15.1202 0.585684C15.0245 0.53112 14.9107 0.518753 14.8063 0.550763C14.7012 0.582774 14.6133 0.65698 14.5637 0.755922C14.514 0.854863 14.506 0.96981 14.5421 1.07457C14.5781 1.17933 14.6551 1.26518 14.7545 1.31101C16.3393 2.11928 17.2321 3.8493 17.338 6.09804C17.338 6.1075 17.338 6.11405 17.338 6.12351C17.248 9.71451 15.8331 11.1201 14.6285 12.3365C14.4816 12.4849 14.4708 12.722 14.6033 12.8835C15.1707 13.5718 16.0729 13.9843 17.0853 14.3859C18.0976 14.7874 19.2396 15.1672 20.2988 15.6845C21.3573 16.2017 22.3286 16.8514 23.0336 17.7724C23.673 18.6083 24.0546 19.7273 24.1295 21.1845H0.869816C0.9447 19.7273 1.32632 18.6083 1.96573 17.7724C2.67065 16.8507 3.64127 16.2017 4.70046 15.6845C5.75893 15.1672 6.90164 14.7874 7.91403 14.3859C8.92641 13.9843 9.82935 13.5718 10.396 12.8835C10.5285 12.722 10.5177 12.4849 10.3708 12.3365C9.16691 11.1201 7.7513 9.71451 7.66129 6.12351C7.66129 6.11914 7.66129 6.1155 7.66129 6.11041C7.66129 6.10532 7.66129 6.10241 7.66129 6.09732C7.73474 4.53025 8.19628 3.21273 8.99698 2.29097C9.80271 1.36339 10.9505 0.814122 12.5 0.814122C12.608 0.815577 12.7124 0.773382 12.7887 0.696993C12.8658 0.620604 12.909 0.515842 12.909 0.406716C12.909 0.297589 12.8658 0.193555 12.7887 0.116438C12.7124 0.0407771 12.608 -0.0014186 12.5 3.64229e-05Z" fill="#00FF00"/>
</svg>
