<svg width="19" height="28" viewBox="0 0 19 28" fill="none" xmlns="http://www.w3.org/2000/svg">
<path d="M9.49969 0C4.24912 0 0 4.42375 0 9.11609C0 10.9922 0.375542 14.7991 4.65801 17.4694L7.2985 21.9763C6.05079 22.16 4.96453 22.4926 4.14559 22.9431C3.24475 23.4385 2.62002 24.1018 2.62002 24.907C2.62002 25.3925 2.86044 25.8361 3.23422 26.2093C3.60801 26.5826 4.11868 26.9035 4.73932 27.1657C5.98001 27.6901 7.6524 28 9.49969 28C11.347 28 13.0188 27.6895 14.2601 27.1657C14.8807 26.9035 15.3914 26.5826 15.7652 26.2093C16.1389 25.8361 16.3794 25.3925 16.3794 24.907C16.3794 24.1012 15.7558 23.439 14.8538 22.9431C14.0337 22.4926 12.9498 22.1507 11.7009 21.9664L14.342 17.4595C17.3913 15.5555 18.4858 13.0765 18.8362 11.1312C18.8701 10.9544 18.7531 10.7835 18.5753 10.7498C18.3975 10.7161 18.2255 10.8323 18.1916 11.0091C17.8611 12.8457 16.8801 15.1561 13.9126 16.9712C13.8664 16.9985 13.8278 17.0369 13.7997 17.0828L9.50028 24.4082L5.20085 17.0828C5.17336 17.0369 5.13416 16.9985 5.08795 16.9712C0.94061 14.4346 0.655736 10.9294 0.655736 9.11667C0.655736 4.8185 4.62233 0.651731 9.50028 0.651731C14.3782 0.651731 18.3448 4.8185 18.3448 9.11667C18.3436 9.20388 18.3776 9.28818 18.439 9.34981C18.5004 9.41201 18.5847 9.4469 18.6724 9.4469C18.7601 9.4469 18.8438 9.41201 18.9058 9.34981C18.9672 9.2876 19.0011 9.20388 19 9.11667C18.9994 4.42375 14.7503 0.000581383 9.49969 0ZM9.49969 4.23247C6.61235 4.23247 4.26843 6.56905 4.26843 9.44166C4.26843 12.3143 6.61235 14.6404 9.49969 14.6404C12.387 14.6404 14.7409 12.3149 14.7409 9.44166C14.7409 6.56789 12.387 4.23247 9.49969 4.23247ZM9.49969 4.88362C12.0337 4.88362 14.0858 6.92021 14.0858 9.44166C14.0858 11.9625 12.0337 13.9892 9.49969 13.9892C6.96566 13.9892 4.92358 11.9637 4.92358 9.44166C4.92358 6.91962 6.96566 4.88362 9.49969 4.88362ZM7.65708 22.5763L9.21306 25.232C9.27039 25.3355 9.38036 25.4001 9.49969 25.4001C9.61902 25.4001 9.72841 25.3355 9.78632 25.232L11.3423 22.5763C12.6415 22.742 13.7611 23.0867 14.5362 23.5123C15.3317 23.9495 15.7236 24.4448 15.7236 24.9065C15.7236 25.1849 15.5932 25.4617 15.3042 25.7506C15.0147 26.0396 14.5695 26.3256 14.0039 26.5646C12.8737 27.0419 11.2715 27.3483 9.49969 27.3483C7.72786 27.3483 6.12566 27.0425 4.99553 26.5646C4.43046 26.3256 3.98472 26.0396 3.69517 25.7506C3.40562 25.4617 3.27576 25.1849 3.27576 24.9065C3.27576 24.4454 3.66826 23.9495 4.46322 23.5123C5.23887 23.0856 6.35555 22.742 7.65708 22.5763Z" fill="#0BEB77"/>
</svg>
