<svg width="15" height="26" viewBox="0 0 15 26" fill="none" xmlns="http://www.w3.org/2000/svg">
<path d="M0.555556 2.08371V23.9163C0.555556 24.7799 1.30159 25.48 2.22123 25.48H12.7788C13.6974 25.48 14.4444 24.7794 14.4444 23.9163V2.08371C14.4444 1.22014 13.6984 0.52 12.7788 0.52H2.22123C1.30258 0.52 0.555556 1.22061 0.555556 2.08371ZM0 2.08371C0 0.93275 0.995536 0 2.22123 0H12.7788C14.0055 0 15 0.933214 15 2.08371V23.9163C15 25.0668 14.0045 26 12.7788 26H2.22123C0.994544 26 0 25.0668 0 23.9163V2.08371ZM7.5 24.18C8.42064 24.18 9.16667 23.4817 9.16667 22.62C9.16667 21.7588 8.42064 21.06 7.5 21.06C6.57937 21.06 5.83333 21.7583 5.83333 22.62C5.83333 23.4817 6.57937 24.18 7.5 24.18ZM7.5 23.66C6.88641 23.66 6.38889 23.1943 6.38889 22.62C6.38889 22.0457 6.88641 21.58 7.5 21.58C8.11359 21.58 8.61111 22.0457 8.61111 22.62C8.61111 23.1943 8.11359 23.66 7.5 23.66ZM9.44444 1.56H6.11111C5.95784 1.56 5.83333 1.67607 5.83333 1.82C5.83333 1.96393 5.95784 2.08 6.11111 2.08H9.44444C9.59772 2.08 9.72222 1.96346 9.72222 1.82C9.72222 1.67654 9.59772 1.56 9.44444 1.56ZM4.80357 2.00386C4.9122 2.10554 5.0878 2.10554 5.19643 2.00386C5.30506 1.90218 5.30506 1.73782 5.19643 1.63614C5.0878 1.53493 4.9122 1.53493 4.80357 1.63614C4.69494 1.73736 4.69494 1.90218 4.80357 2.00386Z" fill="#00FF00"/>
</svg>
