<svg width="21" height="22" viewBox="0 0 21 22" fill="none" xmlns="http://www.w3.org/2000/svg">
<path d="M9.11933 9.81818V9.81814C9.11974 9.25042 9.35216 8.70692 9.76513 8.30581C10.178 7.90481 10.7373 7.67948 11.3205 7.67822M9.11933 9.81818L12.0929 10.9833V11.0333C12.093 11.0333 12.0932 11.0333 12.0933 11.0333C12.9432 11.0331 13.7876 10.284 13.7876 8.88672C13.7876 8.13184 13.5135 7.48775 13.0411 7.03245C12.5689 6.57728 11.9014 6.31368 11.1193 6.31368C9.23739 6.31368 7.81601 7.76292 7.81601 9.67939C7.81601 11.281 8.98241 12.4437 10.5869 12.4441C11.1445 12.4613 11.6977 12.3402 12.1942 12.0924L12.1946 12.0922C12.267 12.0551 12.3 11.9704 12.2701 11.8947C12.2701 11.8946 12.27 11.8944 12.27 11.8943L12.1336 11.5358L12.1336 11.5358L12.1331 11.5345C12.1158 11.4926 12.0813 11.4595 12.038 11.4437C11.9955 11.4256 11.9472 11.4258 11.9049 11.4445L11.9049 11.4444L11.9023 11.4457C11.5303 11.6351 11.1146 11.7297 10.6944 11.7213V11.7213H10.6934C10.0771 11.7213 9.56559 11.508 9.20813 11.1415C8.85055 10.775 8.64359 10.2515 8.64359 9.62497C8.64359 8.10559 9.66359 7.01237 11.0616 7.01237C11.6591 7.01237 12.138 7.19775 12.4673 7.52596C12.7967 7.85416 12.9816 8.33029 12.9816 8.9217H12.9815L12.9817 8.92503C13.0109 9.36266 12.8638 9.79447 12.5708 10.129C12.4805 10.2243 12.3557 10.2827 12.2219 10.2911C12.1866 10.2917 12.1532 10.2774 12.1301 10.2523C12.0945 10.2052 12.0214 10.0424 12.1227 9.54515L12.1228 9.54424L12.3999 8.04289C12.4157 7.97006 12.3757 7.89777 12.3073 7.86948C11.9958 7.73896 11.6597 7.6739 11.3205 7.67822M9.11933 9.81818C9.11933 10.6077 9.66448 11.0284 10.2099 11.0286M9.11933 9.81818L10.2099 11.0286M11.3205 7.67822C11.3206 7.67822 11.3207 7.67822 11.3207 7.67822L11.3208 7.72822L11.3202 7.67822C11.3203 7.67822 11.3204 7.67822 11.3205 7.67822ZM10.2099 11.0286C10.6488 11.0348 11.0651 10.8464 11.3428 10.5201C11.3784 10.6247 11.4376 10.7207 11.5164 10.8007L10.2099 11.0286ZM20.5965 8.40188L20.5953 8.39458L20.5921 8.38793C20.5767 8.3561 20.5549 8.3277 20.5281 8.30459L20.5281 8.30457L20.5267 8.30344L18.1627 6.40926V3.90129C18.1627 3.83003 18.1335 3.76156 18.0818 3.71146C18.0303 3.66145 17.9609 3.63359 17.8884 3.63359H14.7019L11.7876 1.3019L11.7875 1.30185C11.5021 1.07427 11.1445 0.95 10.7756 0.95C10.4066 0.95 10.0494 1.07428 9.76398 1.30185L9.76384 1.30196L6.8608 3.63359H3.66795C3.51803 3.63359 3.39359 3.7517 3.39359 3.90129V6.4093L1.0384 8.30114L1.03837 8.3011L1.03667 8.3026C1.01021 8.32589 0.988443 8.35413 0.973025 8.38598L0.969804 8.39264L0.968646 8.39994C0.967884 8.40475 0.967479 8.40958 0.967433 8.41441C0.956211 8.44339 0.950438 8.47397 0.950005 8.50504H0.95V8.50573L0.949975 20.7994L0.950025 20.801C0.950903 20.8287 0.956082 20.8564 0.965625 20.8829V20.8911V20.9027L0.970657 20.913C0.982716 20.9378 0.998121 20.9607 1.01634 20.9811L1.01615 20.9813L1.01985 20.9847C1.0374 21.0008 1.05656 21.0154 1.07739 21.0278L1.08921 21.0348H1.10297H1.1234C1.15141 21.0445 1.18055 21.0496 1.21002 21.05H1.21074L20.3404 21.05L20.3411 21.05C20.3704 21.0496 20.3998 21.0446 20.4278 21.0348H20.4481H20.4616L20.4733 21.028C20.4948 21.0155 20.5143 21.0008 20.5317 20.9843L20.5319 20.9844L20.5348 20.9811C20.553 20.9607 20.5684 20.9378 20.5804 20.913L20.5855 20.9027V20.8911V20.8829C20.595 20.8569 20.6007 20.8292 20.6011 20.8002V20.7994V8.51141C20.6054 8.48112 20.604 8.45047 20.5976 8.42129C20.5979 8.41481 20.5975 8.40833 20.5965 8.40188ZM11.4364 15.2994L11.4359 15.2999C11.2493 15.449 11.0148 15.5307 10.7727 15.5307C10.5307 15.5307 10.2962 15.449 10.1096 15.2999L3.94272 10.3513L3.94232 4.16861H17.614V10.3513L11.6608 15.1253L11.6602 15.1257L11.4364 15.2994ZM1.48791 20.3032V9.0764L9.2613 15.3177L1.48791 20.3032ZM9.76669 15.7243L9.76686 15.7245C10.0519 15.9508 10.409 16.0747 10.7776 16.0747C11.1457 16.0747 11.5029 15.9508 11.7879 15.7245L11.788 15.7243L11.8521 15.6729L19.4254 20.5317H2.1289L9.70257 15.6729L9.76669 15.7243ZM20.0664 9.07612V20.3028L12.2954 15.3173L20.0664 9.07612ZM11.3167 9.25326L11.3165 9.25395C11.2734 9.48728 11.1481 9.74123 10.9821 9.93638C10.8149 10.1329 10.615 10.2603 10.4258 10.2603C10.3278 10.2603 10.2563 10.2391 10.2035 10.2075C10.1507 10.1759 10.1137 10.1323 10.0875 10.0831C10.0341 9.98279 10.0271 9.86172 10.0271 9.78358C10.0271 9.05083 10.584 8.44027 11.2335 8.44028L11.2339 8.44027C11.3146 8.43965 11.3955 8.44598 11.475 8.45886L11.3167 9.25326ZM18.1623 7.10562L19.9084 8.51001L18.1623 9.9144V7.10562ZM10.1136 1.70422C10.1137 1.70419 10.1137 1.70416 10.1137 1.70414C10.3002 1.55511 10.5347 1.47375 10.7768 1.47375C11.0187 1.47375 11.2532 1.55547 11.4398 1.70415C11.4398 1.70419 11.4399 1.70422 11.4399 1.70426L13.8396 3.6332H7.71355L10.1136 1.70422ZM3.39359 7.10545V9.91213L1.64559 8.50771L3.39359 7.10545Z" fill="#00FF00" stroke="#00FF00" stroke-width="0.1"/>
</svg>
