<svg width="22" height="21" viewBox="0 0 22 21" fill="none" xmlns="http://www.w3.org/2000/svg">
<path d="M20.9894 17.9001C21.127 18.0378 21.1959 18.1961 21.1959 18.375C21.1959 18.5539 21.127 18.7122 20.9894 18.8499L19.957 19.8823C19.8194 20.0199 19.6611 20.0887 19.4821 20.0887C19.3032 20.0887 19.1449 20.0199 19.0073 19.8823L10.8929 11.7679L2.77846 19.8823C2.64081 20.0199 2.48252 20.0887 2.30357 20.0887C2.12463 20.0887 1.96633 20.0199 1.82868 19.8823L0.796317 18.8499C0.658668 18.7122 0.589844 18.5539 0.589844 18.375C0.589844 18.1961 0.658668 18.0378 0.796317 17.9001L10.418 8.27846C10.5556 8.14081 10.7139 8.07199 10.8929 8.07199C11.0718 8.07199 11.2301 8.14081 11.3677 8.27846L20.9894 17.9001ZM20.9894 9.97154C21.127 10.1092 21.1959 10.2675 21.1959 10.4464C21.1959 10.6254 21.127 10.7837 20.9894 10.9213L19.957 11.9537C19.8194 12.0913 19.6611 12.1602 19.4821 12.1602C19.3032 12.1602 19.1449 12.0913 19.0073 11.9537L10.8929 3.83928L2.77846 11.9537C2.64081 12.0913 2.48252 12.1602 2.30357 12.1602C2.12463 12.1602 1.96633 12.0913 1.82868 11.9537L0.796317 10.9213C0.658668 10.7837 0.589844 10.6254 0.589844 10.4464C0.589844 10.2675 0.658668 10.1092 0.796317 9.97154L10.418 0.349887C10.5556 0.212238 10.7139 0.143414 10.8929 0.143414C11.0718 0.143414 11.2301 0.212238 11.3677 0.349887L20.9894 9.97154Z" fill="black"/>
</svg>
