<svg width="12" height="13" viewBox="0 0 12 13" fill="none" xmlns="http://www.w3.org/2000/svg">
<path d="M6 0.6875C2.78906 0.6875 0.1875 3.3125 0.1875 6.5C0.1875 9.71094 2.78906 12.3125 6 12.3125C9.1875 12.3125 11.8125 9.71094 11.8125 6.5C11.8125 3.3125 9.1875 0.6875 6 0.6875ZM6 1.8125C8.57812 1.8125 10.6875 3.92188 10.6875 6.5C10.6875 9.10156 8.57812 11.1875 6 11.1875C3.39844 11.1875 1.3125 9.10156 1.3125 6.5C1.3125 3.92188 3.39844 1.8125 6 1.8125ZM9.28125 4.88281L8.74219 4.34375C8.64844 4.22656 8.46094 4.22656 8.34375 4.34375L5.03906 7.625L3.63281 6.21875C3.51562 6.10156 3.35156 6.10156 3.23438 6.21875L2.69531 6.73438C2.60156 6.85156 2.60156 7.03906 2.69531 7.13281L4.82812 9.28906C4.94531 9.40625 5.10938 9.40625 5.22656 9.28906L9.28125 5.28125C9.375 5.16406 9.375 4.97656 9.28125 4.88281Z" fill="#00FF00"/>
</svg>
