<svg width="30" height="30" viewBox="0 0 30 30" fill="none" xmlns="http://www.w3.org/2000/svg">
<path d="M14.9923 30H15.0065C23.2871 30 29.9988 23.2871 29.9988 15.0077V15.0006C30 6.71527 23.2847 0 15.0006 0C6.71527 0 0 6.71527 0 14.9994V15.0065C0 23.2871 6.71291 30 14.9923 30Z" fill="white"/>
<path d="M15.0006 8.69442C17.0542 8.69442 17.2978 8.70269 18.1088 8.73934C18.8584 8.77363 19.2662 8.89895 19.537 9.00417C19.8964 9.14368 20.1518 9.31038 20.4213 9.57993C20.6909 9.84949 20.8576 10.1049 20.9971 10.4643C21.1023 10.735 21.2276 11.1429 21.2619 11.8924C21.2986 12.7035 21.3068 12.947 21.3068 15.0006C21.3068 17.0542 21.2986 17.2978 21.2619 18.1088C21.2276 18.8584 21.1023 19.2662 20.9971 19.537C20.8576 19.8964 20.6909 20.1518 20.4213 20.4213C20.1518 20.6909 19.8964 20.8576 19.537 20.9971C19.2662 21.1023 18.8584 21.2276 18.1088 21.2619C17.2978 21.2986 17.0542 21.3068 15.0006 21.3068C12.947 21.3068 12.7035 21.2986 11.8924 21.2619C11.1429 21.2276 10.735 21.1023 10.4643 20.9971C10.1049 20.8576 9.84948 20.6909 9.57993 20.4213C9.31037 20.1518 9.14367 19.8964 9.00416 19.537C8.89894 19.2662 8.77362 18.8584 8.73933 18.1088C8.70268 17.2978 8.69441 17.0542 8.69441 15.0006C8.69441 12.947 8.70268 12.7035 8.73933 11.8924C8.77362 11.1429 8.89894 10.735 9.00416 10.4643C9.14367 10.1049 9.31037 9.84949 9.57993 9.57993C9.84948 9.31038 10.1049 9.14368 10.4643 9.00417C10.735 8.89895 11.1429 8.77363 11.8924 8.73934C12.7035 8.70151 12.9458 8.69442 15.0006 8.69442ZM15.0006 7.30762C12.9116 7.30762 12.6491 7.31589 11.8298 7.35373C11.0105 7.39156 10.4524 7.52161 9.96298 7.71077C9.45697 7.90703 9.02781 8.17067 8.60101 8.59747C8.17303 9.02545 7.91057 9.45461 7.71431 9.95944C7.52397 10.4489 7.39392 11.0081 7.35727 11.8262C7.31943 12.6467 7.31116 12.908 7.31116 14.9971C7.31116 17.0861 7.31943 17.3486 7.35727 18.1679C7.3951 18.9872 7.52515 19.5453 7.71431 20.0347C7.91057 20.5407 8.17421 20.9699 8.60101 21.3967C9.02899 21.8247 9.45815 22.0871 9.96298 22.2834C10.4524 22.4737 11.0117 22.6038 11.8298 22.6404C12.6503 22.6783 12.9116 22.6865 15.0006 22.6865C17.0897 22.6865 17.3521 22.6783 18.1715 22.6404C18.9908 22.6026 19.5488 22.4726 20.0383 22.2834C20.5443 22.0871 20.9734 21.8235 21.4002 21.3967C21.8282 20.9687 22.0907 20.5395 22.2869 20.0347C22.4773 19.5453 22.6073 18.986 22.644 18.1679C22.6818 17.3474 22.6901 17.0861 22.6901 14.9971C22.6901 12.908 22.6818 12.6456 22.644 11.8262C22.6061 11.0069 22.4761 10.4489 22.2869 9.95944C22.0907 9.45343 21.827 9.02427 21.4002 8.59747C20.9722 8.16949 20.5431 7.90703 20.0383 7.71077C19.5488 7.52043 18.9896 7.39038 18.1715 7.35373C17.351 7.31708 17.0885 7.30762 15.0006 7.30762Z" fill="black"/>
<path d="M15.0006 11.0505C12.8193 11.0505 11.0507 12.8192 11.0507 15.0005C11.0507 17.1818 12.8193 18.9504 15.0006 18.9504C17.1819 18.9504 18.9506 17.1818 18.9506 15.0005C18.9506 12.8192 17.1819 11.0505 15.0006 11.0505ZM15.0006 17.5636C13.5843 17.5636 12.4363 16.4157 12.4363 14.9993C12.4363 13.583 13.5843 12.435 15.0006 12.435C16.417 12.435 17.5649 13.583 17.5649 14.9993C17.5649 16.4157 16.4158 17.5636 15.0006 17.5636Z" fill="black"/>
<path d="M19.1054 11.818C19.6154 11.818 20.0288 11.4046 20.0288 10.8947C20.0288 10.3847 19.6154 9.97131 19.1054 9.97131C18.5955 9.97131 18.1821 10.3847 18.1821 10.8947C18.1821 11.4046 18.5955 11.818 19.1054 11.818Z" fill="black"/>
</svg>
