<svg width="31" height="30" viewBox="0 0 31 30" fill="none" xmlns="http://www.w3.org/2000/svg">
<path d="M15.8627 0C7.57739 0 0.862122 6.71686 0.862122 15.003C0.862122 23.2855 7.57503 29.9988 15.8544 29.9988H15.8686C24.1492 29.9988 30.8609 23.2843 30.8609 15.003C30.8621 6.71686 24.1469 0 15.8627 0Z" fill="white"/>
<path d="M22.1346 8.85847L7.88716 14.2544C7.10804 14.4791 7.13287 15.249 7.70864 15.4346L11.2779 16.5486L12.6434 20.7371C12.8089 21.196 12.9449 21.3686 13.2286 21.3722C13.5266 21.3757 13.6412 21.2669 13.9498 20.9938C14.3128 20.6532 14.8637 20.1175 15.7362 19.2696L19.4497 22.0143C20.1331 22.3915 20.6261 22.1964 20.7963 21.3793L23.1242 9.86127C23.376 8.85966 22.7884 8.56166 22.1346 8.85847ZM11.8395 16.2931L19.9557 11.1999C20.3553 10.9315 20.4806 11.2307 20.3009 11.4376L13.5656 17.4982L13.2204 20.5231L11.8395 16.2931Z" fill="black"/>
</svg>
