<svg width="31" height="30" viewBox="0 0 31 30" fill="none" xmlns="http://www.w3.org/2000/svg">
<path d="M15.4412 30H15.4554C23.7363 30 30.4483 23.2871 30.4483 15.0077V15.0006C30.4495 6.71527 23.734 0 15.4495 0C7.16384 0 0.448303 6.71527 0.448303 14.9994V15.0065C0.448303 23.2871 7.16148 30 15.4412 30Z" fill="white"/>
<path fill-rule="evenodd" clip-rule="evenodd" d="M14.8902 20.9059H16.0276C16.0276 20.9059 16.3705 20.8681 16.5467 20.6789C16.7086 20.5052 16.7027 20.18 16.7027 20.18C16.7027 20.18 16.6803 18.6549 17.3885 18.4291C18.0872 18.208 18.9834 19.9034 19.9328 20.556C20.6517 21.049 21.1967 20.9414 21.1967 20.9414L23.7375 20.9059C23.7375 20.9059 25.0664 20.8244 24.4362 19.7792C24.3842 19.6941 24.0697 19.006 22.5469 17.5932C20.9531 16.1142 21.1671 16.3542 23.086 13.7958C24.2542 12.2376 24.7224 11.287 24.5758 10.8803C24.4362 10.4925 23.5767 10.5942 23.5767 10.5942L20.7155 10.612C20.7155 10.612 20.5039 10.5836 20.3466 10.677C20.1929 10.7692 20.0948 10.9844 20.0948 10.9844C20.0948 10.9844 19.642 12.1891 19.0378 13.2153C17.7644 15.3777 17.2549 15.4923 17.0468 15.3588C16.562 15.0455 16.6838 14.1008 16.6838 13.4305C16.6838 11.3343 17.0019 10.4606 16.0643 10.2336C15.7533 10.1591 15.524 10.1095 14.7295 10.1012C13.7091 10.0906 12.8448 10.1048 12.3554 10.3436C12.0302 10.5032 11.7784 10.8579 11.9321 10.878C12.1213 10.9028 12.5493 10.9938 12.7763 11.3024C13.0695 11.7008 13.0588 12.597 13.0588 12.597C13.0588 12.597 13.2267 15.0644 12.6651 15.3706C12.2797 15.581 11.75 15.1519 10.615 13.1893C10.0333 12.1844 9.59348 11.073 9.59348 11.073C9.59348 11.073 9.50836 10.865 9.3582 10.7538C9.17494 10.619 8.91838 10.5765 8.91838 10.5765L6.20025 10.5942C6.20025 10.5942 5.79235 10.606 5.64219 10.7834C5.50859 10.9418 5.63155 11.2681 5.63155 11.2681C5.63155 11.2681 7.75972 16.2466 10.1693 18.7566C12.3814 21.0573 14.8902 20.9059 14.8902 20.9059Z" fill="black"/>
</svg>
