<svg width="31" height="30" viewBox="0 0 31 30" fill="none" xmlns="http://www.w3.org/2000/svg">
<path d="M15.3027 30H15.3169C23.5975 30 30.3092 23.2871 30.3092 15.0077V15.0006C30.3104 6.71527 23.5951 0 15.311 0C7.02564 0 0.310364 6.71527 0.310364 14.9994V15.0065C0.310364 23.2871 7.02327 30 15.3027 30Z" fill="white"/>
<path d="M23.4249 11.2221C23.2227 10.3425 22.5027 9.69461 21.6373 9.59766C19.5872 9.3683 17.5123 9.3683 15.4457 9.3683C13.3791 9.36712 11.3043 9.3683 9.25421 9.59766C8.38879 9.69461 7.66998 10.3425 7.46781 11.2221C7.17934 12.4741 7.17697 13.8408 7.17697 15.1307C7.17697 16.4205 7.17697 17.7872 7.46426 19.0392C7.66643 19.9188 8.38525 20.5667 9.25185 20.6637C11.3019 20.893 13.3768 20.8942 15.4434 20.893C17.51 20.8942 19.5849 20.893 21.6349 20.6637C22.5003 20.5667 23.2203 19.9188 23.4225 19.0392C23.7098 17.7872 23.7121 16.4205 23.7121 15.1307C23.7121 13.842 23.7133 12.4753 23.4249 11.2221ZM13.7102 17.3853V12.8004L18.081 15.0928L13.7102 17.3853Z" fill="black"/>
</svg>
