<svg width="160" height="23" viewBox="0 0 160 23" fill="none" xmlns="http://www.w3.org/2000/svg">
<path fill-rule="evenodd" clip-rule="evenodd" d="M0 1.92911V0.282935H18.0564V1.92911H9.90274V22.3519H8.16655V1.92911H0ZM19.0081 11.3174C19.0081 8.10224 20.0627 5.41436 22.159 3.25376C24.2553 1.0803 26.8917 0 30.0683 0C33.2192 0 35.8556 1.06744 37.9648 3.20232C40.0739 5.33719 41.1285 8.03794 41.1285 11.3174C41.1285 14.5583 40.0739 17.2462 37.9648 19.4068C35.8556 21.5545 33.2192 22.6348 30.0683 22.6348C26.9174 22.6348 24.281 21.5674 22.1718 19.4325C20.0627 17.2976 19.0081 14.5969 19.0081 11.3174ZM20.8343 11.3174C20.8343 14.0696 21.7217 16.3717 23.4965 18.2236C25.2713 20.0756 27.4576 21.0015 30.0683 21.0015C32.7433 21.0015 34.9425 20.0756 36.6916 18.2236C38.4406 16.3717 39.3023 14.0696 39.3023 11.3174C39.3023 8.53951 38.4149 6.23744 36.6401 4.39836C34.8654 2.55928 32.679 1.64617 30.0683 1.64617C27.4447 1.64617 25.2456 2.55928 23.4836 4.39836C21.7217 6.23744 20.8343 8.53951 20.8343 11.3174ZM48.0604 22.3519H46.3242V0.282935C46.7229 0.282935 47.6103 0.270075 48.9993 0.257214C50.3882 0.231493 51.2885 0.231493 51.7129 0.231493C53.179 0.231493 54.4522 0.424403 55.5068 0.797364C56.5742 1.17032 57.3844 1.68475 57.9503 2.34065C58.5162 2.99654 58.9277 3.69102 59.1849 4.43694C59.4422 5.18286 59.5579 5.99309 59.5579 6.88048C59.5579 8.771 58.902 10.3657 57.5774 11.6775C56.2527 12.9764 54.2979 13.6323 51.7129 13.6323C50.3882 13.6323 49.1665 13.5938 48.0604 13.5037V22.3519ZM51.8801 1.8648C50.7226 1.8648 49.4494 1.89052 48.0604 1.92911V11.8318C49.4237 11.9347 50.6197 11.9862 51.6486 11.9862C53.6034 11.9862 55.1081 11.5232 56.1498 10.5844C57.2044 9.64553 57.7317 8.39804 57.7317 6.85475C57.7317 5.33719 57.2558 4.12829 56.2913 3.22804C55.3525 2.31493 53.8735 1.8648 51.8801 1.8648Z" fill="white"/>
<path fill-rule="evenodd" clip-rule="evenodd" d="M72.1742 22.3519V0.282898H73.9104V20.7057H85.5365V22.3519H72.1742Z" fill="#21F920"/>
<path d="M101.818 0.244278H89.5491V1.92903H101.818V0.244278Z" fill="#21F920"/>
<path d="M101.844 10.2886H89.5748V11.9733H101.844V10.2886Z" fill="#21F920"/>
<path d="M101.741 20.7316H89.4719V22.4164H101.741V20.7316Z" fill="#21F920"/>
<path d="M142.599 0.295771H130.33V1.98052H142.599V0.295771Z" fill="#21F920"/>
<path d="M142.625 10.3401H130.356V12.0248H142.625V10.3401Z" fill="#21F920"/>
<path d="M142.522 20.7828H130.253V22.4675H142.522V20.7828Z" fill="#21F920"/>
<path fill-rule="evenodd" clip-rule="evenodd" d="M160 0.205658V22.2618H158.264V1.83897H146.625V0.205658H160Z" fill="#21F920"/>
<path fill-rule="evenodd" clip-rule="evenodd" d="M125.996 0.154479L116.737 22.4164H115.502L106.011 0.154479H107.876L116.171 19.7671L124.234 0.154479H125.996Z" fill="#21F920"/>
</svg>
