<svg width="234" height="33" viewBox="0 0 234 33" fill="none" xmlns="http://www.w3.org/2000/svg">
<path fill-rule="evenodd" clip-rule="evenodd" d="M0 2.8125V0.4125H26.325V2.8125H14.4375V32.5875H11.9062V2.8125H0ZM27.7125 16.5C27.7125 11.8125 29.25 7.89375 32.3062 4.74375C35.3625 1.575 39.2062 0 43.8375 0C48.4312 0 52.275 1.55625 55.35 4.66875C58.425 7.78125 59.9625 11.7188 59.9625 16.5C59.9625 21.225 58.425 25.1437 55.35 28.2937C52.275 31.425 48.4312 33 43.8375 33C39.2437 33 35.4 31.4437 32.325 28.3312C29.25 25.2187 27.7125 21.2812 27.7125 16.5ZM30.375 16.5C30.375 20.5125 31.6687 23.8687 34.2562 26.5687C36.8438 29.2687 40.0312 30.6187 43.8375 30.6187C47.7375 30.6187 50.9437 29.2687 53.4937 26.5687C56.0437 23.8687 57.3 20.5125 57.3 16.5C57.3 12.45 56.0062 9.09375 53.4187 6.4125C50.8312 3.73125 47.6437 2.4 43.8375 2.4C40.0125 2.4 36.8062 3.73125 34.2375 6.4125C31.6687 9.09375 30.375 12.45 30.375 16.5ZM70.0687 32.5875H67.5375V0.4125C68.1187 0.4125 69.4125 0.39375 71.4375 0.375C73.4625 0.3375 74.775 0.3375 75.3937 0.3375C77.5312 0.3375 79.3875 0.61875 80.925 1.1625C82.4812 1.70625 83.6625 2.45625 84.4875 3.4125C85.3125 4.36875 85.9125 5.38125 86.2875 6.46875C86.6625 7.55625 86.8312 8.7375 86.8312 10.0312C86.8312 12.7875 85.875 15.1125 83.9437 17.025C82.0125 18.9187 79.1625 19.875 75.3937 19.875C73.4625 19.875 71.6812 19.8187 70.0687 19.6875V32.5875ZM75.6375 2.71875C73.95 2.71875 72.0937 2.75625 70.0687 2.8125V17.25C72.0562 17.4 73.8 17.475 75.3 17.475C78.15 17.475 80.3438 16.8 81.8625 15.4312C83.4 14.0625 84.1687 12.2437 84.1687 9.99375C84.1687 7.78125 83.475 6.01875 82.0687 4.70625C80.7 3.375 78.5437 2.71875 75.6375 2.71875Z" fill="white"/>
<path fill-rule="evenodd" clip-rule="evenodd" d="M105.225 32.5874V0.412445H107.756V30.1874H124.706V32.5874H105.225Z" fill="#21F920"/>
<path d="M148.444 0.35614H130.556V2.81239H148.444V0.35614Z" fill="#21F920"/>
<path d="M148.481 15H130.594V17.4562H148.481V15Z" fill="#21F920"/>
<path d="M148.331 30.2252H130.444V32.6815H148.331V30.2252Z" fill="#21F920"/>
<path d="M207.9 0.431213H190.012V2.88746H207.9V0.431213Z" fill="#21F920"/>
<path d="M207.937 15.0751H190.05V17.5313H207.937V15.0751Z" fill="#21F920"/>
<path d="M207.787 30.2998H189.9V32.7561H207.787V30.2998Z" fill="#21F920"/>
<path fill-rule="evenodd" clip-rule="evenodd" d="M233.269 0.299835V32.4561H230.737V2.68109H213.769V0.299835H233.269Z" fill="#21F920"/>
<path fill-rule="evenodd" clip-rule="evenodd" d="M183.694 0.22522L170.194 32.6815H168.394L154.556 0.22522H157.275L169.369 28.819L181.125 0.22522H183.694Z" fill="#21F920"/>
</svg>
